%FSTAX44Y44*%
%MOMM*%
%SFA1B1*%

%IPPOS*%
%ADD19C,0.253999*%
%ADD26C,0.127000*%
%LNpcb2-1*%
%LPD*%
G54D19*
X00495342Y0063627D02*
Y00651504D01*
X00502959*
X00505498Y00648965*
Y00643886*
X00502959Y00641347*
X00495342*
X00510577Y0063627D02*
X00515655D01*
X00513116*
Y00646426*
X00510577*
X00538508Y00651504D02*
Y0063627D01*
X00546125*
X00548665Y00638808*
Y00641347*
X00546125Y00643886*
X00538508*
X00546125*
X00548665Y00646426*
Y00648965*
X00546125Y00651504*
X00538508*
X00556282Y0063627D02*
X0056136D01*
X005639Y00638808*
Y00643886*
X0056136Y00646426*
X00556282*
X00553743Y00643886*
Y00638808*
X00556282Y0063627*
X00571517Y00648965D02*
Y00646426D01*
X00568978*
X00574056*
X00571517*
Y00638808*
X00574056Y0063627*
X00584213Y00648965D02*
Y00646426D01*
X00581674*
X00586752*
X00584213*
Y00638808*
X00586752Y0063627*
X00596909D02*
X00601987D01*
X00604526Y00638808*
Y00643886*
X00601987Y00646426*
X00596909*
X0059437Y00643886*
Y00638808*
X00596909Y0063627*
X00609605D02*
Y00646426D01*
X00612144*
X00614683Y00643886*
Y0063627*
Y00643886*
X00617222Y00646426*
X00619761Y00643886*
Y0063627*
X00650232Y00648965D02*
X00647692Y00651504D01*
X00642614*
X00640075Y00648965*
Y00646426*
X00642614Y00643886*
X00647692*
X00650232Y00641347*
Y00638808*
X00647692Y0063627*
X00642614*
X00640075Y00638808*
X00657849Y00648965D02*
Y00646426D01*
X0065531*
X00660388*
X00657849*
Y00638808*
X00660388Y0063627*
X00668006D02*
X00673084D01*
X00670545*
Y00646426*
X00668006*
X00683241Y0063627D02*
Y00648965D01*
Y00643886*
X00680702*
X0068578*
X00683241*
Y00648965*
X0068578Y00651504*
X00695937Y0063627D02*
Y00648965D01*
Y00643886*
X00693398*
X00698476*
X00695937*
Y00648965*
X00698476Y00651504*
X00713711Y0063627D02*
X00708633D01*
X00706094Y00638808*
Y00643886*
X00708633Y00646426*
X00713711*
X0071625Y00643886*
Y00641347*
X00706094*
X00721329Y0063627D02*
Y00646426D01*
X00728946*
X00731485Y00643886*
Y0063627*
X00744181D02*
X00739103D01*
X00736564Y00638808*
Y00643886*
X00739103Y00646426*
X00744181*
X0074672Y00643886*
Y00641347*
X00736564*
X00751799Y00646426D02*
Y0063627D01*
Y00641347*
X00754338Y00643886*
X00756877Y00646426*
X00759416*
G54D26*
X00790573Y00841426D02*
X0087884D01*
Y0081153D02*
Y00841426D01*
X00790573Y0081026D02*
Y00841426D01*
X00745767Y0081026D02*
X00790573D01*
X00745767Y00673404D02*
X0086995D01*
X00745767Y0081026D02*
Y00673404D01*
X0087884Y0081153D02*
X00923567D01*
Y00673404D02*
Y0081153D01*
X00865116Y00673404D02*
X00923567D01*
M02*